<svg xmlns="http://www.w3.org/2000/svg" xmlns:xlink="http://www.w3.org/1999/xlink" version="1.1" width="368" enable-background="new 0 0 368 448" xml:space="preserve" height="448" style=""><rect id="backgroundrect" width="100%" height="100%" x="0" y="0" fill="none" stroke="none"/>








<g class="currentLayer" style=""><title>Layer 1</title><path fill="#dad4b2" opacity="1.000000" stroke="none" d=" M165.468658,449.000000   C165.473984,445.507599 168.251678,444.221161 170.900299,442.765228   C190.765121,431.845428 205.834091,416.285522 215.797043,395.910767   C217.389542,392.653992 220.607132,388.359070 216.609756,385.548462   C212.561951,382.702393 209.741684,387.419861 207.222015,389.906891   C196.038727,400.945374 183.246384,409.076080 167.592957,411.730560   C153.360596,414.144043 139.692047,412.570831 127.553741,403.846863   C126.342178,402.976105 125.197403,401.995026 124.113113,400.968506   C122.366913,399.315277 120.858864,397.432251 121.653465,394.833984   C122.470070,392.163757 125.051956,392.207153 127.076279,392.186829   C162.606918,391.830780 190.038010,373.522736 215.400223,351.514435   C235.242188,334.296387 252.658264,314.729767 264.562195,290.947205   C275.389038,269.316559 274.366333,248.377701 259.156464,229.105286   C245.945801,212.366013 233.877838,194.743011 219.896790,178.604813   C209.422897,166.514893 195.717117,159.544022 181.201614,153.717773   C159.069717,144.834473 137.262222,135.275238 117.529945,121.614113   C103.085640,111.613983 90.996315,99.362869 82.054443,84.178246   C71.421600,66.122124 72.007072,47.755264 80.963745,29.289530   C82.056984,27.035629 83.484825,24.694294 86.490723,24.995298   C88.774971,25.224041 89.737114,27.136360 90.231766,29.180857   C98.644348,63.951851 121.042740,88.253792 149.362289,108.090370   C167.041214,120.473648 186.476257,129.733719 205.742233,139.234695   C225.146103,148.803680 239.077927,163.082611 246.887650,183.451401   C254.134857,202.353043 267.076538,216.978210 282.963043,229.166443   C284.658447,230.467163 286.569794,232.267410 288.702850,230.390991   C290.639160,228.687576 289.703491,226.397034 288.844177,224.366959   C286.296844,218.349014 282.457153,213.063202 279.204224,207.445496   C274.346161,199.055786 272.218628,190.283005 274.713226,180.623657   C276.019104,175.567215 279.540771,171.980301 282.794586,167.427002   C277.964020,166.671051 273.425629,166.217072 269.011871,165.214340   C260.960358,163.385132 254.253860,159.222031 249.115875,152.673569   C247.460403,150.563644 246.045181,148.328033 245.302124,145.707047   C244.696762,143.571671 243.984024,141.200394 246.019852,139.699020   C248.216614,138.078979 249.724976,140.341049 251.046387,141.617859   C258.328247,148.653931 266.835724,148.716141 275.739624,145.983337   C280.976410,144.376053 286.075287,142.319427 292.297760,140.083420   C286.383575,139.038208 281.467377,138.247528 276.584473,137.287659   C269.630310,135.920624 263.066010,133.585724 257.795105,128.603302   C251.529800,122.680954 248.778503,115.546898 250.808258,106.931343   C251.338699,104.679810 251.828613,102.343063 254.216125,101.176384   C256.388245,101.470505 256.617218,103.320160 257.200592,104.795364   C260.103149,112.134979 265.269592,117.274307 272.304199,120.704063   C279.839600,124.377983 287.912720,126.450539 295.903198,128.765411   C302.819794,130.769180 309.437042,133.440659 315.601105,137.183273   C320.375671,140.082230 324.980469,143.588623 327.217926,148.605957   C330.676819,156.362411 335.702911,162.618057 341.557404,168.611191   C347.325073,174.515503 349.085724,181.930649 347.233551,190.077728   C344.269836,190.231598 343.142578,188.305634 341.624725,187.136658   C334.249542,181.456665 326.055786,179.590805 317.157684,182.345062   C307.259521,185.408890 303.517090,194.537979 308.170898,203.815353   C309.884521,207.231461 311.891815,210.518433 313.975281,213.727890   C326.976227,233.754852 326.185852,254.279572 315.921326,274.941467   C308.869293,289.136841 298.020569,300.594910 287.437134,312.112640   C266.272247,335.145935 250.949005,361.011993 244.906403,392.187683   C239.842361,418.314758 225.621536,437.895447 200.231155,448.750183   C188.645767,449.000000 177.291550,449.000000 165.468658,449.000000  M312.718719,155.638306   C310.536133,154.974899 308.067657,154.596176 307.031525,157.008041   C305.784882,159.909912 307.961517,162.077942 309.971497,163.778488   C312.374268,165.811356 315.592499,167.199997 317.952881,164.465210   C320.119324,161.955124 317.708008,159.559677 315.827881,157.649796   C315.145203,156.956329 314.208527,156.512924 312.718719,155.638306  z" id="svg_1" class="" fill-opacity="1"/><path fill="#dad4b2" opacity="1.000000" stroke="none" d=" M168.464264,162.476105   C178.414429,166.705688 188.939514,168.663971 197.878693,174.069962   C196.934830,176.662689 195.642471,176.476654 194.539246,176.398224   C156.296463,173.679398 118.821640,167.826431 84.480843,149.272110   C68.750984,140.773270 54.735077,130.312790 45.020271,114.899872   C35.644993,100.025612 35.936172,84.402634 41.402332,68.393761   C42.115463,66.305206 43.289379,64.310501 45.799229,64.134964   C48.146065,63.970825 49.297287,65.708420 50.175900,67.609772   C66.669067,103.301392 95.394386,126.581810 128.888138,144.933197   C141.457138,151.819809 154.677200,157.333191 168.464264,162.476105  z" id="svg_2" class="" fill-opacity="1"/><path fill="#dad4b2" opacity="1.000000" stroke="none" d=" M210.115753,191.670837   C213.871933,193.709473 217.734283,195.074066 219.444260,199.413986   C217.362991,201.008209 215.103180,200.473526 213.130249,200.204483   C196.612595,197.952103 180.262131,200.478195 163.864838,201.721909   C136.004333,203.835114 108.327431,203.934418 81.521469,194.290436   C60.523762,186.736084 45.221729,173.645706 39.543259,151.202011   C38.655346,147.692612 36.998989,143.345795 40.295418,140.933716   C44.007126,138.217773 46.509365,142.649277 49.013931,144.652603   C73.849152,164.517502 102.645973,174.996033 133.511688,180.644547   C149.404877,183.553040 165.527954,184.297104 181.579834,185.732605   C191.177383,186.590897 200.835175,187.338364 210.115753,191.670837  z" id="svg_3" class="" fill-opacity="1"/><path fill="#dad4b2" opacity="1.000000" stroke="none" d=" M81.718811,227.311401   C77.628487,223.354630 73.685341,219.723495 71.181175,214.908401   C70.264366,213.145554 69.238045,211.193375 70.816238,209.310516   C72.359680,207.469147 74.374626,207.913254 76.348915,208.585251   C96.661621,215.499176 117.685036,217.117828 138.918045,216.553650   C156.390198,216.089401 173.756989,214.009415 191.135101,212.220428   C202.674393,211.032501 214.135025,211.332550 225.189301,215.186005   C228.705750,216.411835 232.908737,217.398712 234.041382,221.762863   C233.086151,223.393524 231.841202,223.341461 230.712891,223.284607   C214.637894,222.474533 199.344879,226.502777 184.080460,230.745270   C163.182404,236.553558 142.121918,241.571747 120.241127,241.122513   C106.080116,240.831772 92.931976,237.159073 81.718811,227.311401  z" id="svg_4" class="" fill-opacity="1"/><path fill="#dad4b2" opacity="1.000000" stroke="none" d=" M277.373413,347.425537   C280.943573,342.765686 284.546204,338.627869 289.082062,335.432129   C290.727051,334.273132 292.523560,333.251709 294.611389,334.535126   C296.678619,335.806030 296.801086,337.840515 296.333588,339.838013   C293.115570,353.586975 294.728058,367.678772 293.289246,381.548492   C291.178894,401.891510 282.127502,418.598267 266.560608,431.743774   C261.348206,436.145386 255.732239,440.062836 249.425629,442.813721   C247.594513,443.612427 245.490921,444.288422 243.754013,442.770660   C241.838898,441.097107 242.725159,438.978851 243.756363,437.297363   C254.074646,420.472260 257.002228,401.251831 261.650940,382.582672   C264.769531,370.058502 269.449493,358.207794 277.373413,347.425537  z" id="svg_5" class="" fill-opacity="1"/><path fill="#dad4b2" opacity="1.000000" stroke="none" d=" M177.617920,357.869019   C155.203690,363.988525 135.247025,357.221680 122.970520,339.595520   C122.305199,338.640289 121.609421,337.680939 121.119675,336.633789   C119.955246,334.144226 117.670242,331.526550 120.014099,328.829895   C122.205513,326.308716 124.934776,328.058167 127.391495,328.932922   C151.963898,337.682678 175.880844,334.776611 199.282196,324.638977   C212.788666,318.787842 225.444504,311.475281 236.360825,301.415497   C237.618576,300.256439 239.139664,298.464569 241.099762,300.045654   C242.816849,301.430695 241.735107,303.175385 240.821289,304.525696   C225.641998,326.955536 207.429565,345.967346 181.814407,356.564697   C180.592453,357.070251 179.276413,357.348389 177.617920,357.869019  z" id="svg_6" class="" fill-opacity="1"/><path fill="#dad4b2" opacity="1.000000" stroke="none" d=" M165.921692,249.816895   C181.909622,246.205536 196.843582,240.281784 212.536514,237.197647   C221.568237,235.422638 230.689468,234.725815 239.784744,236.730743   C242.548645,237.339996 245.737701,237.636017 247.093201,240.658249   C246.422211,242.593918 244.954941,242.779831 243.732162,242.963715   C231.627563,244.783951 221.040436,250.391159 210.519440,256.161285   C196.066650,264.087769 181.734573,272.395752 165.063675,274.787079   C150.592484,276.862823 136.810272,275.210205 124.889366,265.719299   C123.463173,264.583832 122.093704,263.339935 120.882858,261.981506   C119.666443,260.616791 118.485474,259.054779 119.355782,257.042328   C120.235847,255.007339 122.176819,254.849411 124.018082,254.863602   C133.022797,254.932999 141.972519,254.335220 150.839081,252.738846   C155.742096,251.856079 160.623230,250.851944 165.921692,249.816895  z" id="svg_7" class="" fill-opacity="1"/><path fill="#dad4b2" opacity="1.000000" stroke="none" d=" M228.352463,288.416260   C214.972351,298.554871 200.622025,300.555847 185.172180,295.330719   C183.454376,294.749695 181.709808,294.021271 180.235764,292.991669   C176.810562,290.599274 177.081955,287.146729 181.062897,285.960175   C197.056808,281.192993 210.910675,272.189240 225.291321,264.197937   C232.732208,260.063019 240.481644,256.637878 248.963608,255.173355   C251.276123,254.774078 253.632507,254.358810 255.879639,255.112793   C258.282715,255.919067 259.998383,257.570953 257.308136,259.756409   C246.800598,268.292267 239.331680,279.870941 228.352463,288.416260  z" id="svg_8" class="" fill-opacity="1"/></g></svg>