<?xml version="1.0" standalone="no"?>
<!DOCTYPE svg PUBLIC "-//W3C//DTD SVG 20010904//EN"
 "http://www.w3.org/TR/2001/REC-SVG-20010904/DTD/svg10.dtd">
<svg version="1.0" xmlns="http://www.w3.org/2000/svg"
 width="180.000000pt" height="237.000000pt" viewBox="0 0 180.000000 237.000000"
 preserveAspectRatio="xMidYMid meet">

<g transform="translate(0.000000,237.000000) scale(0.100000,-0.100000)"
fill="#DAD4B2" stroke="none">
<path d="M945 2345 c-280 -52 -567 -253 -688 -483 -90 -171 -130 -361 -130
-622 0 -238 32 -471 103 -751 32 -125 90 -309 111 -351 62 -122 246 -131 329
-16 63 87 61 224 -6 462 -61 216 -105 389 -100 393 3 3 29 -7 59 -21 40 -20
86 -31 183 -42 151 -18 221 -45 282 -107 77 -78 102 -180 102 -414 0 -89 4
-122 21 -166 52 -136 173 -201 277 -148 104 53 146 190 124 405 -28 269 -103
463 -232 605 l-40 44 64 66 c203 211 307 534 247 771 -11 46 -36 108 -54 138
-114 191 -380 288 -652 237z m253 -405 c48 -22 82 -79 82 -140 0 -90 -81 -243
-171 -324 -64 -58 -133 -83 -289 -106 -147 -22 -182 -33 -232 -71 -20 -16 -39
-29 -41 -29 -13 0 -16 57 -7 131 39 319 159 463 455 544 73 20 152 18 203 -5z"/>
</g>
</svg>
